<svg width="21" height="20" viewBox="0 0 21 20" fill="none" xmlns="http://www.w3.org/2000/svg">
<path d="M18.0822 2H15.0822V0.5C15.0822 0.367392 15.0296 0.240215 14.9358 0.146447C14.842 0.0526785 14.7149 0 14.5822 0C14.4496 0 14.3225 0.0526785 14.2287 0.146447C14.1349 0.240215 14.0822 0.367392 14.0822 0.5V2H7.08224V0.5C7.08224 0.367392 7.02957 0.240215 6.9358 0.146447C6.84203 0.0526785 6.71485 0 6.58224 0C6.44964 0 6.32246 0.0526785 6.22869 0.146447C6.13492 0.240215 6.08224 0.367392 6.08224 0.5V2H3.08224C2.41945 2.00079 1.78402 2.26444 1.31535 2.73311C0.846686 3.20178 0.583039 3.8372 0.582245 4.5V17.5C0.583039 18.1628 0.846686 18.7982 1.31535 19.2669C1.78402 19.7356 2.41945 19.9992 3.08224 20H18.0822C18.7451 19.9995 19.3807 19.7359 19.8494 19.2672C20.3182 18.7985 20.5817 18.1629 20.5822 17.5V4.5C20.5817 3.83712 20.3182 3.20154 19.8494 2.73282C19.3807 2.26409 18.7451 2.00053 18.0822 2ZM19.5822 17.5C19.5822 17.8978 19.4242 18.2794 19.1429 18.5607C18.8616 18.842 18.4801 19 18.0822 19H3.08224C2.68442 19 2.30289 18.842 2.02158 18.5607C1.74028 18.2794 1.58224 17.8978 1.58224 17.5V9H19.5822V17.5ZM19.5822 8H1.58224V4.5C1.58224 3.672 2.25224 3 3.08224 3H6.08224V4.5C6.08224 4.63261 6.13492 4.75979 6.22869 4.85355C6.32246 4.94732 6.44964 5 6.58224 5C6.71485 5 6.84203 4.94732 6.9358 4.85355C7.02957 4.75979 7.08224 4.63261 7.08224 4.5V3H14.0822V4.5C14.0822 4.63261 14.1349 4.75979 14.2287 4.85355C14.3225 4.94732 14.4496 5 14.5822 5C14.7149 5 14.842 4.94732 14.9358 4.85355C15.0296 4.75979 15.0822 4.63261 15.0822 4.5V3H18.0822C18.4801 3 18.8616 3.15804 19.1429 3.43934C19.4242 3.72064 19.5822 4.10218 19.5822 4.5V8Z" fill="black"/>
</svg>
