<svg width="60" height="60" viewBox="0 0 60 60" fill="none" xmlns="http://www.w3.org/2000/svg">
<g clip-path="url(#clip0_189_383)">
<path d="M50 7.5C51.38 7.5 52.5 8.62 52.5 10V14.3925L47.5 19.3925V12.5H12.5V32.75L22.5 22.75L33.32 33.5725L29.7825 37.105L22.5 29.825L12.5 39.8225V47.5H38.8325L40.6025 47.5025L43.925 44.1775L47.25 47.5H47.5V40.605L52.5 35.605V50C52.5 51.38 51.38 52.5 50 52.5H10C8.625 52.5 7.5 51.375 7.5 50V10C7.5 8.62 8.62 7.5 10 7.5H50ZM54.445 19.52L57.98 23.055L38.535 42.5L34.995 42.495L35 38.965L54.445 19.52ZM38.75 17.5C40.82 17.5 42.5 19.18 42.5 21.25C42.5 23.32 40.82 25 38.75 25C36.68 25 35 23.32 35 21.25C35 19.18 36.68 17.5 38.75 17.5Z" fill="white"/>
</g>
<defs>
<clipPath id="clip0_189_383">
<rect width="60" height="60" fill="white"/>
</clipPath>
</defs>
</svg>
