<svg width="25" height="25" viewBox="0 0 25 25" fill="none" xmlns="http://www.w3.org/2000/svg">
<rect x="0.335968" y="0.5" width="24" height="24" rx="4" fill="#F05E87"/>
<path d="M2.73596 2.90002H20.1905V11.6273H18.4451V4.64548H4.48142V13.0114L8.84505 8.64781L13.57 13.3728L12.336 14.6068L8.84505 11.1159L4.48142 15.4795V18.6091H11.4632V20.3546H2.73596V2.90002ZM14.5588 7.26366C14.3273 7.26366 14.1054 7.35561 13.9417 7.51928C13.778 7.68295 13.6861 7.90493 13.6861 8.13639C13.6861 8.36785 13.778 8.58983 13.9417 8.7535C14.1054 8.91717 14.3273 9.00912 14.5588 9.00912C14.7903 9.00912 15.0122 8.91717 15.1759 8.7535C15.3396 8.58983 15.4315 8.36785 15.4315 8.13639C15.4315 7.90493 15.3396 7.68295 15.1759 7.51928C15.0122 7.35561 14.7903 7.26366 14.5588 7.26366ZM11.9406 8.13639C11.9406 7.442 12.2165 6.77606 12.7075 6.28505C13.1985 5.79405 13.8644 5.51821 14.5588 5.51821C15.2532 5.51821 15.9191 5.79405 16.4101 6.28505C16.9011 6.77606 17.177 7.442 17.177 8.13639C17.177 8.83077 16.9011 9.49672 16.4101 9.98772C15.9191 10.4787 15.2532 10.7546 14.5588 10.7546C13.8644 10.7546 13.1985 10.4787 12.7075 9.98772C12.2165 9.49672 11.9406 8.83077 11.9406 8.13639ZM18.4451 13.3728V16.8637H21.936V18.6091H18.4451V22.1H16.6996V18.6091H13.2087V16.8637H16.6996V13.3728H18.4451Z" fill="white"/>
</svg>
